<svg width="202" height="21" viewBox="0 0 202 21" fill="none" xmlns="http://www.w3.org/2000/svg">
<path d="M0.448 14.408H3.36V17.736C3.36 18.12 3.424 18.376 3.552 18.504C3.68 18.6107 3.936 18.664 4.32 18.664H5.248C5.632 18.664 5.888 18.6107 6.016 18.504C6.144 18.376 6.208 18.12 6.208 17.736V0.967999H9.12V18.184C9.12 20.0613 8.128 21 6.144 21H3.424C1.44 21 0.448 20.0613 0.448 18.184V14.408ZM22.7515 0.967999H25.6635V18.184C25.6635 20.0613 24.6608 21 22.6555 21H19.1035C17.0982 21 16.0955 20.0613 16.0955 18.184V0.967999H19.0075V17.736C19.0075 18.12 19.0715 18.376 19.1995 18.504C19.3275 18.6107 19.5835 18.664 19.9675 18.664H21.7915C22.1968 18.664 22.4528 18.6107 22.5595 18.504C22.6875 18.376 22.7515 18.12 22.7515 17.736V0.967999ZM39.8863 0.967999H42.7663V21H39.8863V12.2H35.6303V21H32.7503V0.967999H35.6303V9.864H39.8863V0.967999ZM57.294 21L56.494 16.36H52.27L51.534 21H48.654L52.206 0.967999H56.398L60.206 21H57.294ZM52.622 14.024H56.11L54.286 3.464L52.622 14.024ZM77.0795 21H74.5515V0.967999H77.7195L81.1435 13.384L84.5675 0.967999H87.7355V21H85.2075V6.344L82.4555 16.648H79.8315L77.0795 6.376V21ZM102.252 21L101.452 16.36H97.2275L96.4915 21H93.6115L97.1635 0.967999H101.356L105.164 21H102.252ZM97.5795 14.024H101.068L99.2435 3.464L97.5795 14.024ZM121.348 0.967999L117.124 11.016L121.316 21H118.18L114.116 11.016L118.244 0.967999H121.348ZM111.044 21V0.967999H113.924V21H111.044ZM137.469 0.967999L133.245 11.016L137.437 21H134.301L130.237 11.016L134.365 0.967999H137.469ZM127.165 21V0.967999H130.045V21H127.165ZM146.134 0.967999H149.686C151.67 0.967999 152.662 1.90667 152.662 3.784V18.184C152.662 20.0613 151.67 21 149.686 21H146.134C144.129 21 143.126 20.0613 143.126 18.184V3.784C143.126 1.90667 144.129 0.967999 146.134 0.967999ZM149.782 17.736V4.232C149.782 3.848 149.718 3.60266 149.59 3.496C149.462 3.368 149.206 3.304 148.822 3.304H146.966C146.582 3.304 146.326 3.368 146.198 3.496C146.092 3.60266 146.038 3.848 146.038 4.232V17.736C146.038 18.12 146.092 18.376 146.198 18.504C146.326 18.6107 146.582 18.664 146.966 18.664H148.822C149.206 18.664 149.462 18.6107 149.59 18.504C149.718 18.376 149.782 18.12 149.782 17.736ZM166.825 0.967999H169.481V21H166.569L162.345 6.536V21H159.689V0.967999H162.729L166.825 15.016V0.967999ZM179.566 18.664H185.358V21H176.654V0.967999H185.134V3.304H179.566V9.48H184.174V11.816H179.566V18.664ZM198.599 0.967999H201.255V21H198.343L194.119 6.536V21H191.463V0.967999H194.503L198.599 15.016V0.967999Z" fill="#303037"/>
</svg>
