<svg width="48" height="48" viewBox="0 0 48 48" fill="none" xmlns="http://www.w3.org/2000/svg">
<path d="M19.7702 27.3201C24.4502 27.3201 28.2502 23.52 28.2502 18.88C28.2502 14.2 24.4502 10.4401 19.7702 10.4401C15.0902 10.4401 11.2902 14.24 11.2902 18.88C11.3302 23.52 15.1302 27.3201 19.7702 27.3201ZM19.7702 13.6C22.6902 13.6 25.0502 15.9601 25.0502 18.8401C25.0502 21.7201 22.6902 24.08 19.7702 24.08C16.8502 24.08 14.4902 21.7201 14.4902 18.8401C14.5302 15.9601 16.8902 13.6 19.7702 13.6ZM23.6102 28.08C23.1702 27.96 22.6902 28.0001 22.2902 28.2401L19.7702 29.76L17.2502 28.2401C16.8502 28.0001 16.3702 27.96 15.9302 28.08C13.4902 28.84 5.61023 31.68 5.61023 36C5.61023 36.88 6.33023 37.6 7.21023 37.6H32.3302C33.2102 37.6 33.9302 36.88 33.9302 36C33.9302 31.72 26.0502 28.88 23.6102 28.08ZM10.1302 34.4C11.4902 33.36 13.7702 32.24 16.2502 31.36L18.9702 33C19.4902 33.32 20.1302 33.32 20.6102 33L23.3302 31.36C25.8102 32.2 28.0902 33.36 29.4502 34.4H10.1302ZM42.0102 33.2C42.0102 33.88 41.4902 34.4 40.8102 34.4H35.4502C34.7702 34.4 34.2502 33.88 34.2502 33.2C34.2502 32.52 34.7702 32 35.4502 32H39.0102C38.4102 31.2 37.4502 30.5601 36.2502 29.9201C35.6502 29.6001 35.4502 28.8801 35.7702 28.3201C36.0902 27.7201 36.8102 27.5201 37.4102 27.8401C39.1302 28.7601 42.0102 30.72 42.0102 33.2ZM35.2902 22.6401C35.2902 20.8801 33.8502 19.48 32.1302 19.48C31.6902 19.48 31.2902 19.5601 30.8902 19.7201C30.2902 19.9601 29.5702 19.68 29.3302 19.08C29.0902 18.48 29.3702 17.7601 29.9702 17.5201C30.6502 17.2401 31.3702 17.08 32.1302 17.08C35.2102 17.08 37.6902 19.5601 37.6902 22.6401C37.6902 25.7201 35.1702 28.2 32.1302 28.2C30.5302 28.2 29.0102 27.5201 27.9702 26.3201C27.5302 25.8401 27.5702 25.0801 28.0902 24.6401C28.5702 24.2001 29.3302 24.24 29.7702 24.76C30.3702 25.44 31.2502 25.8401 32.1702 25.8401C33.8502 25.8001 35.2902 24.3601 35.2902 22.6401Z" fill="url(#paint0_linear)"/>
<defs>
<linearGradient id="paint0_linear" x1="20.8661" y1="10.44" x2="8.6115" y2="30.9208" gradientUnits="userSpaceOnUse">
<stop stop-color="#BFDDB6"/>
<stop offset="1" stop-color="#4CB8BA"/>
</linearGradient>
</defs>
</svg>
